<svg width="36" height="36" viewBox="0 0 36 36" fill="none" xmlns="http://www.w3.org/2000/svg">
<path fill-rule="evenodd" clip-rule="evenodd" d="M2.25 18.0005C2.25 17.7022 2.36853 17.416 2.5795 17.205C2.79048 16.9941 3.07663 16.8755 3.375 16.8755L29.9092 16.8755L22.8285 9.79703C22.6173 9.58579 22.4986 9.29928 22.4986 9.00053C22.4986 8.70179 22.6173 8.41528 22.8285 8.20403C23.0397 7.99279 23.3263 7.87411 23.625 7.87411C23.9237 7.87411 24.2103 7.99279 24.4215 8.20403L33.4215 17.204C33.5263 17.3085 33.6094 17.4327 33.6661 17.5694C33.7228 17.706 33.752 17.8526 33.752 18.0005C33.752 18.1485 33.7228 18.295 33.6661 18.4317C33.6094 18.5684 33.5263 18.6925 33.4215 18.797L24.4215 27.797C24.2103 28.0083 23.9237 28.127 23.625 28.127C23.3263 28.127 23.0397 28.0083 22.8285 27.797C22.6173 27.5858 22.4986 27.2993 22.4986 27.0005C22.4986 26.7018 22.6173 26.4153 22.8285 26.204L29.9092 19.1255L3.375 19.1255C3.07663 19.1255 2.79048 19.007 2.5795 18.796C2.36853 18.585 2.25 18.2989 2.25 18.0005Z" fill="#0075FF"/>
</svg>
